<?xml version="1.0" standalone="no"?>
<!DOCTYPE svg PUBLIC "-//W3C//DTD SVG 20010904//EN"
 "http://www.w3.org/TR/2001/REC-SVG-20010904/DTD/svg10.dtd">
<svg version="1.0" xmlns="http://www.w3.org/2000/svg"
 width="900.000000pt" height="478.000000pt" viewBox="0 0 900.000000 478.000000"
 preserveAspectRatio="xMidYMid meet">

<g transform="translate(0.000000,478.000000) scale(0.100000,-0.100000)"
fill="#000000" stroke="none">
<path d="M4881 4768 c-18 -5 -59 -23 -90 -40 -163 -90 -228 -229 -166 -354 38
-77 137 -188 199 -223 71 -41 153 -130 199 -218 20 -39 37 -74 37 -77 0 -3
-35 -6 -78 -6 -72 0 -81 2 -103 26 -42 46 -167 134 -252 179 -174 93 -324 133
-529 142 l-136 6 9 24 c14 38 10 158 -7 210 -22 66 -53 104 -124 151 -78 53
-117 59 -380 67 -256 6 -474 14 -625 20 -195 8 -587 20 -685 20 -92 0 -98 -2
-173 -40 -140 -71 -207 -160 -207 -271 0 -83 35 -147 129 -237 259 -248 316
-320 313 -397 -2 -44 -55 -201 -111 -327 -69 -158 -161 -334 -171 -328 -5 3
-19 38 -31 76 -17 56 -20 87 -17 147 7 100 27 156 98 272 32 52 64 117 71 143
24 97 -9 194 -95 279 -67 67 -140 100 -220 102 -202 4 -1438 -17 -1474 -25
-68 -15 -115 -43 -167 -101 -69 -77 -90 -127 -89 -218 1 -82 26 -159 70 -217
14 -18 86 -74 161 -124 248 -165 355 -266 434 -411 26 -46 142 -254 259 -463
117 -209 248 -447 290 -530 179 -345 248 -598 218 -795 -36 -237 -192 -472
-388 -586 -44 -26 -95 -64 -114 -84 -72 -79 -105 -239 -71 -341 22 -66 98
-144 179 -184 89 -44 128 -39 581 63 220 50 576 130 790 177 245 55 408 96
437 111 56 29 138 123 163 188 24 63 17 164 -16 236 -42 91 -78 123 -207 186
-93 46 -130 70 -179 119 -92 92 -93 99 -93 493 l0 323 66 142 c37 78 78 166
92 196 l25 55 19 -95 c42 -206 137 -435 256 -614 86 -131 264 -310 389 -393
144 -95 294 -158 458 -194 81 -17 351 -17 440 1 352 70 665 291 870 615 l50
78 3 -157 c2 -109 -2 -186 -13 -249 -31 -179 -159 -506 -253 -644 -80 -119
-125 -214 -125 -262 1 -52 22 -109 59 -158 77 -100 251 -180 368 -168 61 6
399 30 571 41 50 3 115 8 145 10 245 20 809 45 1022 45 l177 0 85 41 c108 51
157 104 187 198 19 62 20 80 13 337 l-7 271 64 -9 c35 -5 125 -7 199 -4 417
15 793 242 1046 631 127 196 209 411 256 675 17 100 17 469 0 570 -64 365
-210 663 -439 901 -250 258 -532 390 -868 406 -298 13 -592 -92 -830 -296
l-59 -51 -188 0 c-218 0 -213 -4 -110 91 59 55 127 93 217 124 71 23 130 60
160 98 55 73 78 207 55 325 -9 50 -60 142 -96 173 -36 32 -107 61 -158 65 -52
5 -1684 55 -1728 53 -12 0 -38 -5 -57 -11z m1069 -132 c827 -25 776 -19 830
-104 26 -42 30 -56 30 -128 0 -99 -21 -166 -61 -194 -15 -12 -57 -30 -91 -41
-170 -56 -309 -175 -392 -336 l-47 -93 310 0 309 0 53 48 c73 67 141 117 217
159 354 198 762 184 1119 -39 103 -64 262 -212 341 -317 464 -616 418 -1548
-103 -2090 -182 -190 -379 -304 -619 -358 -111 -25 -337 -22 -450 5 -49 12
-91 20 -94 17 -3 -2 0 -153 6 -335 12 -320 11 -331 -8 -383 -24 -64 -45 -85
-125 -125 l-60 -29 -335 -6 c-286 -5 -617 -21 -895 -42 -736 -55 -765 -55
-862 12 -63 43 -113 104 -113 139 0 26 50 126 96 194 110 162 240 484 278 690
14 71 16 160 14 553 l-3 467 -64 -177 c-77 -216 -120 -310 -199 -430 -302
-460 -800 -666 -1277 -528 -458 132 -815 558 -924 1100 -21 106 -41 311 -41
428 0 39 -3 68 -6 64 -3 -3 -89 -182 -190 -398 l-184 -393 0 -356 c0 -383 4
-419 55 -499 44 -71 140 -147 257 -206 62 -31 119 -62 127 -68 23 -19 71 -130
71 -164 0 -17 -5 -44 -10 -58 -14 -38 -79 -114 -109 -130 -35 -17 -1590 -365
-1636 -365 -65 0 -158 62 -186 125 -24 51 -24 78 1 158 23 73 48 100 150 157
169 94 341 334 400 556 47 179 35 351 -41 579 -68 205 -153 367 -730 1399 -79
142 -219 273 -461 433 -135 88 -152 108 -178 202 -16 60 1 118 52 176 71 81
13 75 842 87 408 6 755 8 770 4 32 -8 121 -88 142 -128 26 -51 18 -118 -22
-184 -75 -121 -85 -141 -110 -219 -38 -118 -37 -231 4 -348 31 -90 132 -271
144 -259 13 13 236 456 273 542 51 118 91 234 105 306 27 140 -42 246 -328
506 -63 57 -112 132 -112 170 0 61 57 127 149 173 51 26 60 27 205 26 83 -1
183 -3 221 -6 76 -5 192 -9 770 -25 464 -13 498 -17 560 -61 57 -41 76 -75 82
-148 7 -76 -23 -147 -94 -228 -30 -35 -50 -63 -45 -63 6 0 44 7 86 14 254 49
500 19 723 -89 94 -46 221 -136 282 -199 l35 -36 182 0 183 0 -28 83 c-69 203
-153 322 -291 413 -65 42 -111 91 -164 171 -23 35 -27 49 -22 78 13 65 111
149 206 175 14 4 86 5 160 2 74 -2 466 -14 870 -26z"/>
<path d="M4938 4487 c-37 -30 -30 -39 99 -133 158 -115 280 -330 354 -623 16
-62 29 -117 29 -122 0 -5 -131 -9 -301 -9 l-302 0 -70 66 c-475 448 -1160 350
-1544 -221 -22 -33 -59 -96 -81 -141 -289 -575 -177 -1325 261 -1741 168 -160
345 -247 565 -280 183 -27 379 8 556 100 330 171 573 529 646 953 34 195 28
452 -15 629 -14 58 -14 61 8 79 56 47 306 141 325 122 3 -4 8 -403 10 -886 3
-654 1 -900 -8 -962 -32 -222 -180 -609 -305 -798 -57 -86 -64 -112 -33 -131
20 -13 71 -12 448 16 234 18 506 37 605 44 99 6 205 14 235 16 176 14 261 17
473 20 130 2 241 6 248 11 9 5 10 62 5 233 -3 124 -9 305 -12 401 -2 96 -7
201 -10 234 -3 32 -2 56 3 54 4 -2 40 -19 78 -39 446 -231 977 -68 1286 394
388 580 309 1423 -178 1888 -136 130 -282 212 -461 261 -110 30 -334 30 -444
0 -176 -48 -324 -131 -454 -254 l-71 -68 -442 0 -443 0 7 33 c15 72 68 216
106 285 104 194 266 336 467 409 100 36 125 69 84 106 -16 14 -100 19 -678 37
-362 11 -742 22 -844 25 -150 5 -188 3 -202 -8z m2540 -813 c27 -11 32 -18 32
-47 0 -40 -24 -74 -135 -197 -122 -135 -161 -196 -255 -405 -64 -142 -99 -202
-128 -212 -24 -10 -67 50 -93 129 -19 60 -21 81 -15 165 12 179 74 312 206
444 130 131 264 173 388 123z m-3509 -27 c13 -7 29 -20 35 -30 16 -25 -21 -88
-109 -185 -150 -165 -184 -217 -285 -443 -63 -139 -96 -195 -118 -204 -25 -9
-50 15 -78 72 -24 49 -29 74 -32 161 -3 59 1 130 8 165 40 206 235 434 407
477 44 10 137 3 172 -13z m1476 -202 c3 -22 6 -66 8 -98 l2 -59 -75 -19 c-98
-25 -173 -54 -239 -90 -29 -17 -54 -29 -55 -27 -2 2 -28 56 -59 120 -30 64
-69 137 -86 162 -17 24 -31 46 -31 48 0 2 119 3 265 3 l265 0 5 -40z m1345 37
c0 -2 -11 -18 -24 -35 -36 -49 -91 -153 -127 -242 -18 -44 -34 -81 -35 -83 -1
-2 -24 13 -51 34 -112 86 -264 132 -525 159 l-58 6 0 47 c0 26 3 63 6 82 l6
35 404 0 c222 0 404 -1 404 -3z m-626 -302 c181 -31 333 -101 382 -175 15 -23
15 -32 -2 -133 -23 -140 -24 -379 0 -517 46 -274 150 -505 315 -703 l52 -63
-67 -102 c-86 -132 -197 -243 -289 -288 l-70 -34 -222 -3 c-157 -3 -223 -1
-223 7 0 10 -44 1066 -54 1316 -3 66 -8 208 -11 315 -3 107 -8 241 -10 298
l-5 102 44 0 c24 0 96 -9 160 -20z"/>
<path d="M6134 2908 c3 -57 8 -188 11 -293 3 -104 8 -224 10 -265 3 -41 7
-151 10 -245 3 -93 8 -204 10 -245 2 -41 7 -145 10 -230 3 -85 8 -195 11 -243
l6 -89 132 4 132 3 52 38 c54 40 147 146 177 200 l17 32 -55 80 c-206 301
-312 713 -279 1087 7 73 15 143 18 155 5 18 -1 25 -35 42 -31 16 -208 71 -230
71 -2 0 -1 -46 3 -102z m135 -95 c0 -27 -4 -66 -8 -88 -7 -34 -9 -26 -10 48
-1 52 3 87 9 87 6 0 10 -21 9 -47z m51 -683 c43 -170 120 -349 206 -483 24
-37 44 -72 44 -78 0 -18 -63 -90 -109 -125 -37 -29 -52 -34 -97 -34 -49 0 -54
2 -55 23 0 12 -2 29 -3 37 -2 8 -6 107 -10 220 -4 113 -9 230 -11 260 -2 30
-6 134 -9 230 -5 168 -5 172 8 105 8 -38 24 -108 36 -155z"/>
<path d="M2101 4402 c-21 -17 -22 -21 -10 -44 8 -13 52 -58 99 -99 145 -128
242 -258 286 -381 35 -98 14 -232 -68 -445 -63 -163 -298 -628 -421 -832 l-21
-35 -58 65 c-121 133 -233 321 -280 469 -19 63 -23 96 -22 200 0 114 3 134 33
222 19 54 57 136 87 185 l53 87 -21 23 -21 23 -326 -5 c-179 -3 -400 -7 -491
-10 -91 -2 -265 -4 -387 -5 l-223 0 -16 -25 c-26 -40 -7 -65 108 -140 154
-101 252 -181 358 -292 78 -82 108 -123 166 -229 39 -71 169 -304 289 -519
400 -716 492 -941 503 -1234 7 -197 -22 -338 -103 -506 -88 -183 -251 -369
-397 -455 -60 -35 -78 -51 -84 -74 -4 -21 -1 -33 12 -47 18 -18 40 -13 798
156 848 190 825 183 795 247 -6 13 -33 33 -64 47 -144 62 -288 189 -345 302
-57 113 -60 137 -60 563 l0 390 297 665 c163 367 320 709 348 762 211 385 442
655 687 799 123 73 140 95 96 124 -19 12 -142 19 -653 35 -346 11 -695 23
-775 26 -132 5 -147 4 -169 -13z"/>
</g>
</svg>
